PathFileType	4	(X/Y/Z)	C:\Users\visiteur\Documents\Sourcetree_OSPipeline\dataTest\rep_global_FRMB_Diane\SA04BD\Statique\Static_B_ref.trc
DataRate	CameraRate	NumFrames	NumMarkers	Units	OrigDataRate	OrigDataStartFrame	OrigNumFrames
100	100	9	43	m	100	140	243
Frame#	Time	MTTETE			TEMPG			OCCG			OCCD			TEMPD			MAN			C7			T8			XYP			COSTALD			COSTALG			MTACDL			MTACDM			MTACDB			ACD			CLAVD			MTACGL			MTACGM			MTACGB			ACG			CLAVG			MTBHAG			MTBHPG			MTBBPG			MTBBAG			ELG			EMG			MTABG			PSRG			PSUG			MC2G			MC5G			MTBHAD			MTBHPD			MTBBPD			MTBBAD			ELD			EMD			MTABD			PSRD			PSUD			MC2D			MC5D			
		X1	Y1	Z1	X2	Y2	Z2	X3	Y3	Z3	X4	Y4	Z4	X5	Y5	Z5	X6	Y6	Z6	X7	Y7	Z7	X8	Y8	Z8	X9	Y9	Z9	X10	Y10	Z10	X11	Y11	Z11	X12	Y12	Z12	X13	Y13	Z13	X14	Y14	Z14	X15	Y15	Z15	X16	Y16	Z16	X17	Y17	Z17	X18	Y18	Z18	X19	Y19	Z19	X20	Y20	Z20	X21	Y21	Z21	X22	Y22	Z22	X23	Y23	Z23	X24	Y24	Z24	X25	Y25	Z25	X26	Y26	Z26	X27	Y27	Z27	X28	Y28	Z28	X29	Y29	Z29	X30	Y30	Z30	X31	Y31	Z31	X32	Y32	Z32	X33	Y33	Z33	X34	Y34	Z34	X35	Y35	Z35	X36	Y36	Z36	X37	Y37	Z37	X38	Y38	Z38	X39	Y39	Z39	X40	Y40	Z40	X41	Y41	Z41	X42	Y42	Z42	X43	Y43	Z43	
92	0.9200	-0.360911	1.712969	0.056013	-0.316179	1.679555	0.110335	-0.200339	1.647421	0.104540	-0.193176	1.644400	-0.055802	-0.323177	1.693136	-0.048384	-0.317220	1.424939	0.029072	-0.153331	1.495761	0.010006	-0.116759	1.299373	0.009449	-0.372768	1.213258	0.026266	-0.373347	1.168491	-0.054729	-0.357329	1.158509	0.108275	-0.161229	1.430743	-0.154306	-0.126109	1.456664	-0.118510	-0.124272	1.422554	-0.143446	-0.217633	1.442006	-0.176980	-0.288878	1.449542	-0.064656	-0.117444	1.426647	0.160173	-0.092689	1.450567	0.115278	-0.085516	1.415980	0.139554	-0.166019	1.442639	0.200729	-0.264485	1.452571	0.116722	-0.200347	1.384315	0.303759	-0.149381	1.371110	0.291947	-0.111060	1.295440	0.339605	-0.199482	1.314941	0.363303	-0.127293	1.199734	0.396469	-0.186750	1.152364	0.353091	-0.189903	1.162727	0.516835	-0.186912	1.094108	0.621812	-0.164823	1.045288	0.604129	-0.188415	1.047533	0.705626	-0.181894	0.995505	0.657480	-0.206364	1.320702	-0.274115	-0.165915	1.294292	-0.253438	-0.194997	1.237205	-0.318247	-0.250000	1.268657	-0.348729	-0.226916	1.189503	-0.364120	-0.248189	1.130553	-0.300325	-0.311263	1.113016	-0.486379	-0.357469	1.061948	-0.548124	-0.325009	1.018116	-0.539404	-0.389585	1.009297	-0.618032	-0.362304	0.957626	-0.575332	
93	0.9300	-0.360971	1.712925	0.056072	-0.316267	1.679529	0.110394	-0.200409	1.647433	0.104578	-0.193267	1.644445	-0.055761	-0.323275	1.693140	-0.048327	-0.317289	1.424966	0.029100	-0.153386	1.495767	0.010026	-0.116834	1.299370	0.009472	-0.372874	1.213305	0.026314	-0.373466	1.168512	-0.054673	-0.357431	1.158540	0.108334	-0.161320	1.430733	-0.154261	-0.126167	1.456649	-0.118493	-0.124343	1.422544	-0.143424	-0.217687	1.442012	-0.176959	-0.288935	1.449565	-0.064637	-0.117494	1.426657	0.160193	-0.092752	1.450564	0.115291	-0.085577	1.415982	0.139574	-0.166082	1.442654	0.200747	-0.264536	1.452585	0.116750	-0.200376	1.384334	0.303788	-0.149352	1.371138	0.291952	-0.111092	1.295449	0.339619	-0.199512	1.314966	0.363333	-0.127338	1.199746	0.396484	-0.186822	1.152386	0.353124	-0.189921	1.162747	0.516869	-0.186902	1.094128	0.621837	-0.164830	1.045298	0.604151	-0.188401	1.047579	0.705655	-0.181917	0.995525	0.657521	-0.206448	1.320704	-0.274078	-0.165996	1.294287	-0.253406	-0.195086	1.237201	-0.318215	-0.250083	1.268663	-0.348699	-0.226998	1.189510	-0.364095	-0.248294	1.130565	-0.300295	-0.311348	1.113038	-0.486359	-0.357555	1.061975	-0.548107	-0.325111	1.018138	-0.539387	-0.389675	1.009337	-0.618029	-0.362411	0.957658	-0.575322	
94	0.9400	-0.361006	1.712879	0.056126	-0.316340	1.679502	0.110449	-0.200466	1.647445	0.104607	-0.193355	1.644489	-0.055729	-0.323372	1.693141	-0.048273	-0.317356	1.424990	0.029127	-0.153436	1.495769	0.010041	-0.116907	1.299365	0.009495	-0.372985	1.213353	0.026364	-0.373592	1.168531	-0.054616	-0.357531	1.158569	0.108393	-0.161415	1.430715	-0.154212	-0.126224	1.456630	-0.118482	-0.124412	1.422526	-0.143401	-0.217737	1.442014	-0.176942	-0.288986	1.449585	-0.064622	-0.117542	1.426665	0.160209	-0.092808	1.450559	0.115301	-0.085633	1.415982	0.139591	-0.166135	1.442669	0.200764	-0.264583	1.452601	0.116775	-0.200401	1.384355	0.303814	-0.149324	1.371166	0.291955	-0.111124	1.295453	0.339627	-0.199539	1.314995	0.363360	-0.127388	1.199758	0.396499	-0.186898	1.152410	0.353155	-0.189943	1.162770	0.516902	-0.186898	1.094150	0.621860	-0.164840	1.045310	0.604171	-0.188392	1.047623	0.705682	-0.181944	0.995546	0.657559	-0.206526	1.320701	-0.274044	-0.166073	1.294274	-0.253375	-0.195171	1.237190	-0.318182	-0.250160	1.268665	-0.348671	-0.227079	1.189508	-0.364070	-0.248398	1.130570	-0.300266	-0.311431	1.113055	-0.486342	-0.357640	1.061999	-0.548091	-0.325215	1.018156	-0.539373	-0.389765	1.009374	-0.618027	-0.362518	0.957686	-0.575313	
95	0.9500	-0.361030	1.712833	0.056178	-0.316398	1.679475	0.110499	-0.200510	1.647457	0.104626	-0.193438	1.644531	-0.055708	-0.323467	1.693140	-0.048221	-0.317421	1.425013	0.029152	-0.153481	1.495769	0.010051	-0.116979	1.299356	0.009517	-0.373103	1.213400	0.026416	-0.373724	1.168548	-0.054560	-0.357630	1.158595	0.108452	-0.161513	1.430688	-0.154166	-0.126280	1.456608	-0.118478	-0.124479	1.422500	-0.143379	-0.217785	1.442010	-0.176928	-0.289035	1.449603	-0.064611	-0.117584	1.426672	0.160222	-0.092858	1.450552	0.115306	-0.085686	1.415979	0.139601	-0.166180	1.442683	0.200778	-0.264627	1.452618	0.116798	-0.200423	1.384378	0.303836	-0.149307	1.371193	0.291956	-0.111157	1.295453	0.339629	-0.199566	1.315025	0.363383	-0.127441	1.199771	0.396514	-0.186978	1.152435	0.353185	-0.189968	1.162795	0.516933	-0.186900	1.094172	0.621884	-0.164855	1.045324	0.604189	-0.188392	1.047662	0.705708	-0.181978	0.995567	0.657593	-0.206598	1.320693	-0.274014	-0.166146	1.294255	-0.253345	-0.195253	1.237173	-0.318148	-0.250231	1.268663	-0.348648	-0.227163	1.189497	-0.364042	-0.248499	1.130570	-0.300241	-0.311515	1.113068	-0.486327	-0.357727	1.062019	-0.548078	-0.325321	1.018170	-0.539361	-0.389855	1.009406	-0.618026	-0.362623	0.957708	-0.575306	
96	0.9600	-0.361051	1.712791	0.056228	-0.316443	1.679449	0.110543	-0.200544	1.647468	0.104637	-0.193515	1.644570	-0.055697	-0.323559	1.693138	-0.048171	-0.317485	1.425033	0.029176	-0.153521	1.495765	0.010055	-0.117051	1.299343	0.009536	-0.373230	1.213447	0.026469	-0.373860	1.168561	-0.054503	-0.357729	1.158618	0.108511	-0.161611	1.430654	-0.154124	-0.126335	1.456583	-0.118478	-0.124545	1.422469	-0.143358	-0.217831	1.442003	-0.176919	-0.289083	1.449618	-0.064603	-0.117622	1.426676	0.160231	-0.092903	1.450543	0.115307	-0.085734	1.415973	0.139606	-0.166218	1.442696	0.200788	-0.264669	1.452636	0.116819	-0.200445	1.384402	0.303855	-0.149304	1.371216	0.291957	-0.111193	1.295449	0.339626	-0.199593	1.315056	0.363403	-0.127498	1.199784	0.396527	-0.187061	1.152461	0.353212	-0.189997	1.162822	0.516963	-0.186910	1.094194	0.621907	-0.164876	1.045340	0.604206	-0.188401	1.047696	0.705734	-0.182019	0.995588	0.657624	-0.206663	1.320681	-0.273988	-0.166215	1.294232	-0.253318	-0.195332	1.237151	-0.318116	-0.250296	1.268657	-0.348628	-0.227250	1.189477	-0.364014	-0.248598	1.130565	-0.300220	-0.311600	1.113076	-0.486314	-0.357816	1.062034	-0.548067	-0.325428	1.018180	-0.539351	-0.389946	1.009433	-0.618026	-0.362727	0.957726	-0.575299	
97	0.9700	-0.361075	1.712756	0.056276	-0.316475	1.679426	0.110582	-0.200569	1.647479	0.104640	-0.193587	1.644605	-0.055693	-0.323647	1.693136	-0.048124	-0.317547	1.425051	0.029198	-0.153559	1.495759	0.010054	-0.117122	1.299328	0.009554	-0.373364	1.213494	0.026524	-0.374001	1.168570	-0.054448	-0.357831	1.158639	0.108572	-0.161712	1.430613	-0.154089	-0.126391	1.456555	-0.118482	-0.124611	1.422433	-0.143342	-0.217875	1.441992	-0.176913	-0.289130	1.449631	-0.064598	-0.117656	1.426678	0.160236	-0.092942	1.450531	0.115304	-0.085780	1.415963	0.139604	-0.166252	1.442708	0.200795	-0.264708	1.452655	0.116836	-0.200466	1.384426	0.303870	-0.149312	1.371238	0.291956	-0.111230	1.295443	0.339620	-0.199622	1.315087	0.363419	-0.127558	1.199797	0.396539	-0.187147	1.152488	0.353237	-0.190028	1.162852	0.516992	-0.186926	1.094218	0.621931	-0.164902	1.045358	0.604222	-0.188419	1.047725	0.705760	-0.182068	0.995610	0.657652	-0.206724	1.320666	-0.273965	-0.166282	1.294207	-0.253292	-0.195409	1.237125	-0.318085	-0.250357	1.268650	-0.348612	-0.227339	1.189452	-0.363985	-0.248692	1.130557	-0.300202	-0.311686	1.113079	-0.486305	-0.357906	1.062045	-0.548058	-0.325535	1.018186	-0.539343	-0.390037	1.009455	-0.618026	-0.362828	0.957737	-0.575292	
98	0.9800	-0.361103	1.712728	0.056323	-0.316498	1.679406	0.110616	-0.200587	1.647488	0.104637	-0.193654	1.644635	-0.055696	-0.323729	1.693135	-0.048081	-0.317607	1.425066	0.029218	-0.153596	1.495751	0.010050	-0.117193	1.299311	0.009569	-0.373508	1.213540	0.026580	-0.374143	1.168575	-0.054394	-0.357938	1.158658	0.108635	-0.161817	1.430565	-0.154059	-0.126448	1.456526	-0.118490	-0.124676	1.422395	-0.143329	-0.217917	1.441980	-0.176912	-0.289179	1.449640	-0.064594	-0.117687	1.426676	0.160238	-0.092977	1.450518	0.115299	-0.085822	1.415951	0.139598	-0.166281	1.442719	0.200799	-0.264746	1.452673	0.116851	-0.200488	1.384450	0.303882	-0.149322	1.371259	0.291952	-0.111270	1.295438	0.339614	-0.199654	1.315117	0.363433	-0.127619	1.199811	0.396549	-0.187235	1.152516	0.353260	-0.190061	1.162884	0.517021	-0.186949	1.094243	0.621954	-0.164934	1.045378	0.604238	-0.188447	1.047752	0.705787	-0.182126	0.995632	0.657678	-0.206782	1.320649	-0.273945	-0.166346	1.294182	-0.253269	-0.195485	1.237099	-0.318057	-0.250415	1.268640	-0.348599	-0.227430	1.189426	-0.363960	-0.248783	1.130545	-0.300187	-0.311772	1.113079	-0.486296	-0.357997	1.062051	-0.548049	-0.325640	1.018188	-0.539336	-0.390126	1.009470	-0.618025	-0.362928	0.957743	-0.575283	
99	0.9900	-0.361131	1.712708	0.056369	-0.316512	1.679390	0.110645	-0.200600	1.647495	0.104629	-0.193716	1.644660	-0.055704	-0.323804	1.693135	-0.048041	-0.317665	1.425079	0.029237	-0.153634	1.495742	0.010043	-0.117262	1.299294	0.009582	-0.373661	1.213588	0.026638	-0.374286	1.168576	-0.054342	-0.358052	1.158676	0.108701	-0.161931	1.430510	-0.154032	-0.126508	1.456497	-0.118500	-0.124743	1.422357	-0.143322	-0.217958	1.441967	-0.176914	-0.289229	1.449647	-0.064590	-0.117719	1.426673	0.160238	-0.093009	1.450504	0.115293	-0.085864	1.415937	0.139589	-0.166308	1.442730	0.200801	-0.264781	1.452691	0.116863	-0.200510	1.384474	0.303891	-0.149327	1.371280	0.291944	-0.111311	1.295434	0.339609	-0.199688	1.315147	0.363444	-0.127680	1.199826	0.396560	-0.187324	1.152545	0.353282	-0.190095	1.162918	0.517049	-0.186978	1.094270	0.621976	-0.164971	1.045401	0.604255	-0.188482	1.047779	0.705817	-0.182193	0.995657	0.657705	-0.206841	1.320631	-0.273929	-0.166410	1.294160	-0.253249	-0.195561	1.237072	-0.318032	-0.250472	1.268629	-0.348588	-0.227519	1.189403	-0.363939	-0.248871	1.130532	-0.300173	-0.311858	1.113075	-0.486288	-0.358087	1.062051	-0.548041	-0.325741	1.018185	-0.539329	-0.390213	1.009478	-0.618021	-0.363025	0.957743	-0.575273	
100	1.0000	-0.361156	1.712697	0.056412	-0.316518	1.679377	0.110671	-0.200610	1.647500	0.104619	-0.193773	1.644681	-0.055715	-0.323872	1.693137	-0.048006	-0.317722	1.425091	0.029255	-0.153671	1.495733	0.010033	-0.117329	1.299278	0.009592	-0.373827	1.213639	0.026697	-0.374432	1.168573	-0.054292	-0.358173	1.158693	0.108769	-0.162059	1.430446	-0.154005	-0.126568	1.456469	-0.118513	-0.124809	1.422319	-0.143320	-0.217999	1.441955	-0.176920	-0.289281	1.449652	-0.064588	-0.117752	1.426669	0.160237	-0.093038	1.450491	0.115288	-0.085904	1.415924	0.139578	-0.166334	1.442741	0.200802	-0.264815	1.452708	0.116872	-0.200534	1.384498	0.303899	-0.149324	1.371303	0.291932	-0.111353	1.295434	0.339606	-0.199725	1.315174	0.363453	-0.127740	1.199842	0.396570	-0.187412	1.152576	0.353303	-0.190132	1.162953	0.517076	-0.187013	1.094300	0.621998	-0.165014	1.045427	0.604273	-0.188526	1.047809	0.705849	-0.182266	0.995684	0.657733	-0.206902	1.320613	-0.273917	-0.166473	1.294140	-0.253232	-0.195638	1.237047	-0.318010	-0.250532	1.268615	-0.348577	-0.227603	1.189387	-0.363927	-0.248957	1.130517	-0.300159	-0.311943	1.113067	-0.486279	-0.358176	1.062045	-0.548033	-0.325837	1.018177	-0.539321	-0.390297	1.009480	-0.618015	-0.363121	0.957737	-0.575259	
